<svg width="502" height="456" fill="none" xmlns="http://www.w3.org/2000/svg"><path d="M370.798 63.59v53.57l-89.335-47.914v-53.57l89.335 47.913Z" fill="#1CD77D"/><path d="M304.324 35.013v-1.955l-18.928-10.15v1.954l18.928 10.15ZM304.324 38.765V36.81L285.396 26.66v1.954l18.928 10.152ZM304.324 42.517v-1.955L285.396 30.41v1.956l18.928 10.15ZM314.941 38.844v1.954l18.926 10.151v-1.954l-18.926-10.15ZM314.941 44.55l18.926 10.151v-1.955l-18.926-10.15v1.955ZM314.941 48.303l18.926 10.15v-1.955l-18.926-10.15v1.955ZM314.941 57.708l18.926 10.15v-1.954l-18.926-10.151v1.955ZM314.941 61.46l18.926 10.151v-1.954l-18.926-10.152v1.954ZM314.941 65.212l18.926 10.151V73.41l-18.926-10.152v1.955ZM314.941 74.618l18.926 10.15v-1.955l-18.926-10.15v1.955ZM314.941 78.37l18.926 10.15v-1.955l-18.926-10.15v1.954ZM314.941 82.121l18.926 10.151v-1.954l-18.926-10.15v1.953ZM304.324 46.269v-1.955l-18.928-10.15v1.954l18.928 10.15ZM347.967 79.29l-6.691-3.59v20.308l6.691 3.59V79.288ZM356.815 73.034l-6.692-3.589v31.319l6.692 3.589v-31.32ZM365.661 66.817l-6.691-3.59v42.292l6.691 3.588v-42.29ZM296.576 60.001V48.642c-.208-.125-.417-.257-.629-.37-5.807-3.109-10.531-.614-10.551 5.575-.02 6.186 4.673 13.723 10.483 16.832 5.808 3.11 10.533.614 10.552-5.574 0-.092-.01-.186-.012-.278L296.576 60Z" fill="#ECF5FF"/><path d="M280.747 14.524v55.104l.356.193 90.413 48.491V63.207l-.358-.192-90.411-48.491Zm1.433 2.304 87.902 47.144v52.035L282.18 68.862V16.828Z" fill="#CED9E4"/><path d="M99.674 90.382v85.476l142.542-76.453V13.931L99.674 90.38Z" fill="#6EC7EF"/><path d="M95.379 75.71 235.862.358a3.023 3.023 0 0 1 2.827-.016l.001-.001.031.016.009.006 5.381 2.896-3.952 13.114v86.23c0 3.141-1.808 6.045-4.744 7.615l-135.353 72.604-1.573 3.94-5.418-2.915v-.001c-1.53-.799-2.626-2.306-2.626-4.166V83.628c.001-3.267 1.881-6.286 4.934-7.919Z" fill="#8CE2FF"/><path d="M95.867 86.544v96.053c0 3.685 4.3 5.986 7.741 4.145l137.229-73.608c2.934-1.571 4.743-4.474 4.743-7.615V5.575c0-2.043-2.387-3.32-4.297-2.3l-140.484 75.35c-3.051 1.634-4.932 4.653-4.932 7.92Z" fill="#ECF5FF"/><path d="M99.674 90.382v85.476l142.542-76.453V13.931L99.674 90.38Z" fill="#FF6A6A"/><path d="m432.324 112.935-6.44 3.816-2.87 2.459-66.209-1.405-1.834-1.562-8.124-1.586v85.281a.951.951 0 0 0 .524.872l1.304.698 39.739 21.311c.595.32 1.33.32 1.926.002l38.474-20.595 4.999-2.671c.645-.346.955-.958.933-1.562l.002-.002V112.71l-2.424.225Z" fill="url(#a)"/><path d="m433.815 111.264-.076-.039L394 89.915a2.059 2.059 0 0 0-1.926-.002l-36.532 19.554-8.172 4.37c-.7.376-.702 1.315 0 1.691l1.304.699 39.739 21.311a2.06 2.06 0 0 0 1.926.001l38.475-20.594 4.999-2.672c1.249-.668 1.25-2.339.002-3.009Z" fill="#ECF5FF"/><path d="m118.126 223.854 19.179 11.362 8.546 7.322 326.497 65.047 5.453-4.65 24.193-4.722v10.317c.027 1.003-.49 2.02-1.561 2.595l-3.881 2.08-118.324 63.453a6.13 6.13 0 0 1-5.734.002L128.579 246.11l-14.884-7.954c-1.922-1.027-2.844-2.852-2.781-4.653l-.006-.002v-10.317l7.218.67Z" fill="#8CE2FF"/><path d="M487.044 309.914v6.705l6.654-3.56v-6.705l-6.654 3.56ZM477.972 314.745v6.705l6.654-3.56v-6.705l-6.654 3.56ZM468.901 319.578v6.705l6.654-3.561v-6.705l-6.654 3.561ZM384.182 365.103v6.705l20.703-11.118v-6.707l-20.703 11.12ZM344.574 353.418v6.704l-20.703-11.12v-6.706l20.703 11.122Z" fill="#6AA5EC"/><path d="M473.232 287.36 249.768 167.741l-118.325 63.453 223.464 119.619 118.325-63.453Z" fill="url(#b)"/><path d="m113.696 227.839 14.883 7.954 243.916 130.55a6.128 6.128 0 0 0 5.733-.002l118.324-63.455 3.882-2.079c2.089-1.12 2.088-3.919-.004-5.037l-24.333-13.009L237.968 155.31a6.124 6.124 0 0 0-5.735.001l-118.324 63.454-.218.117c-3.718 1.991-3.716 6.97.005 8.957Zm17.747 3.355 118.324-63.453L473.232 287.36l-118.325 63.453-223.464-119.619Z" fill="#ECF5FF"/><path opacity=".07" d="M277.553 204.475c16.657 0 30.16-3.811 30.16-8.513 0-4.701-13.503-8.512-30.16-8.512s-30.16 3.811-30.16 8.512c0 4.702 13.503 8.513 30.16 8.513Z" fill="#0C6239"/><path d="m187.251 78.037 8.553-4.588v40.031l-8.553 4.588v-40.03ZM199.418 71.56l8.552-4.586v40.031l-8.552 4.587V71.561ZM211.583 65.085l8.554-4.587v40.03l-8.554 4.588v-40.03ZM223.752 58.609l8.552-4.587v40.03l-8.552 4.588V58.61ZM131.443 80.828v2.499L107.253 96.3v-2.499l24.19-12.974ZM131.443 88.122l-24.19 12.975v-2.498l24.19-12.976v2.499ZM131.443 92.918l-24.19 12.974v-2.499l24.19-12.973v2.498ZM131.443 97.715l-24.19 12.974v-2.499l24.19-12.974v2.499ZM131.443 105.794v2.498l-24.19 12.974v-2.499l24.19-12.973ZM131.443 113.087l-24.19 12.975v-2.498l24.19-12.975v2.498ZM131.443 117.884l-24.19 12.974v-2.499l24.19-12.974v2.499ZM131.443 122.679l-24.19 12.975v-2.499l24.19-12.975v2.499ZM159.693 94.936c-9.159 4.903-16.562 16.787-16.531 26.545.03 9.758 7.481 13.694 16.639 8.79 9.16-4.902 16.561-16.788 16.532-26.544-.03-9.758-7.48-13.693-16.64-8.79ZM409.225 303.817l-14.975-8.016a5.358 5.358 0 0 0-5.023.008l-14.338 7.735c-.947.509-1.51 1.42-1.508 2.434.003 1.017.568 1.926 1.517 2.434l14.862 7.954a6.31 6.31 0 0 0 2.976.738c1.035 0 2.069-.25 2.993-.746l13.505-7.287c1.021-.55 1.629-1.534 1.628-2.629-.002-1.096-.613-2.078-1.637-2.625ZM374.616 322.341l-14.974-8.016a5.358 5.358 0 0 0-5.023.008l-14.338 7.735c-.947.509-1.511 1.42-1.509 2.434.003 1.017.568 1.926 1.517 2.434l14.863 7.954a6.296 6.296 0 0 0 2.975.738c1.035 0 2.07-.25 2.993-.746l13.505-7.287c1.021-.55 1.63-1.534 1.629-2.629-.003-1.096-.614-2.078-1.638-2.625ZM443.294 285.519l-14.973-8.015a5.367 5.367 0 0 0-5.025.005l-14.337 7.737c-.946.509-1.51 1.42-1.51 2.435.003 1.016.57 1.925 1.518 2.433l14.862 7.954a6.298 6.298 0 0 0 2.976.739 6.332 6.332 0 0 0 2.993-.747l13.504-7.284c1.022-.552 1.63-1.536 1.63-2.631-.002-1.096-.614-2.079-1.638-2.626Z" fill="#ECF5FF"/><path d="m128.405 187.827-9.675 5.731-4.312 3.695-99.46-2.111-2.751-2.347L0 190.414v151.037c-.014.507.247 1.021.788 1.309l1.958 1.05 59.697 32.014c.895.48 1.998.48 2.893 0l57.795-30.935 7.508-4.014c.97-.518 1.435-1.44 1.404-2.346l.003-.002V187.49l-3.642.337Z" fill="url(#c)"/><path d="m130.644 185.319-.111-.06-59.697-32.013a3.094 3.094 0 0 0-2.893-.001l-54.875 29.373L.792 189.18c-1.056.565-1.056 1.977 0 2.542l1.957 1.049 59.698 32.013c.895.48 1.998.48 2.892 0l57.795-30.934 7.508-4.014c1.877-1.001 1.878-3.512.002-4.517Z" fill="#ECF5FF"/><path d="m130.64 227.186-7.508 4.016-57.795 30.934a3.09 3.09 0 0 1-2.893-.002L2.748 230.122l-1.957-1.05c-.542-.29-.802-.802-.788-1.31v5.944c-.014.507.248 1.019.788 1.31l1.957 1.05 59.697 32.012a3.088 3.088 0 0 0 2.893.003l57.795-30.935 7.508-4.014c.97-.519 1.435-1.44 1.404-2.346l.003-.001v-5.945h-.003c.031.909-.434 1.828-1.405 2.346ZM130.64 298.668l-7.508 4.014-57.795 30.934a3.097 3.097 0 0 1-2.893 0L2.747 301.604.79 300.553c-.542-.289-.802-.8-.788-1.309v5.944c-.014.508.247 1.022.788 1.31l1.957 1.05 59.697 32.014a3.097 3.097 0 0 0 2.893 0l57.795-30.937 7.508-4.011c.97-.519 1.435-1.441 1.404-2.347l.002-.003v-5.944l-.002.001c.032.907-.433 1.829-1.404 2.347Z" fill="#fff"/><path d="M128.521 118.97s2.185-8.633 7.369-10.231c0 0 4.769-.16 3.697 3.804 0 0-3.843 3.608-2.806 3.986 1.116.407 3.698.231 1.322 1.626-2.242 1.316-4.374 2.058-6.647 5.063l-.663 1.5-3.772-2.356 1.5-3.392Z" fill="#F7CA82"/><path d="M96.11 134.545s20.632.196 32.181-17.632c0 0 4.437-.819 6.39 3.908 0 0-12.611 24.49-37.248 23.804 0 0-8.392-5.874-1.323-10.08Z" fill="#1CD87D"/><path d="M142.99 206.339s3.565-.99 5.451-1.134c2.014-.152 4.699 3.421 1.064 5.693-3.635 2.273-8.61 4.238-10.567 3.913-1.956-.325-3.637-.954-3.806-1.387-.169-.434.394-7.723.394-7.723l7.464.638Z" fill="#C6704E"/><path d="M120.288 172.23s12.745-2.53 19.566-3.123c2.48-.215 4.642 1.605 4.759 4.017.291 5.983.825 24.085-.065 33.064l-5.823 2.354c-2.231.437-4.398-.069-4.508-2.212l-.76-20.913c-.754-.551-2.196.094-3.682.709-4.388 1.817-16.108 5.448-20.654 3.905 0 0-13.815-4.632-13.815-13.85l24.982-3.951Z" fill="#2367E9"/><path d="M94.107 136.32c1.285-1.402 3.469-2.171 5.323-1.636l3.273.944 10.624 4.799 7.352 3.737.629 22.796 1.447 9.471-5.065 5.236c-5.201 4.719-23.27-4.708-23.27-4.708-2.685-8.623-3.465-30.948-3.465-30.948.137-4.883 1.476-7.863 3.152-9.691Z" fill="#4B9FD8"/><path d="M106.289 115.9c2.538-.403 3.977-.872 6.431-.169 4.127 1.182 6.321 4.978 7.317 8.776 1.004 3.829 1.301 9.408-.96 12.963-1.413 2.224-4.561 1.808-6.809 1.229-2.718-.699-6.273-1.835-8.502-3.468-3.104-2.275-4.747-7.255-4.936-10.854-.162-3.101 3.582-7.861 7.459-8.477Z" fill="#F7CA82"/><path d="M112.268 138.699c-2.718-.699-6.273-1.835-8.502-3.468a8.038 8.038 0 0 1-1.058-.94l-.006-.001v3.622c.722 1.416 2.482 2.004 4.036 2.176 2.06.228 3.699 1.106 6.589.337l.325-1.436a17 17 0 0 1-1.384-.29Z" fill="#F7B378"/><path d="m102.48 134.993-.828 2.413s4.876 6.589 13.073 3.731l-1.179-1.428s-7.651.195-11.066-4.716Z" fill="#ECF5FF"/><path d="M140.666 166.235s1.631-.362 2.582-.297c.951.066 1.585 1.186 2.356 1.603.771.417 2.06 1.889 2.083 3.492.022 1.603-.748 3.361-1.654 3.36-.905-.003-1.109.176-1.38-.483-.272-.659-1.88-2.921-1.88-2.921l-2.107-4.754Z" fill="#F7CA82"/><path d="M141.51 165.321c-1.929.489-12.646 1.245-12.646 1.245s-1.303-13.211-2.815-17.36c-1.51-4.148-5.609-5.122-5.609-5.122-7.13 3.335-3.412 11.97-3.412 11.97 2.75 7.425 4.092 13.588 4.682 16.888.26 1.453 1.677 2.423 3.179 2.186 9.495-1.498 18.432-3.598 18.432-3.598.001-3.676-1.811-6.209-1.811-6.209Z" fill="#1CD87D"/><path d="M119.845 117.513c-5.852-4.73-13.884-2.144-13.884-2.144v.006c-.641.128-1.242.308-1.763.567-2.739 1.363-5.529 5.336-5.367 8.436.19 3.598 1.833 8.578 4.937 10.854 1.714 1.255 4.212 2.215 6.51 2.911.635-.295 1.586-3.655 1.586-3.655-1.3-.731-2.307-4.921-.922-5.653 1.383-.732 2.305 1.871 2.305 1.871.797-.284 2.014-1.18 1.343-2.725-.671-1.546 0-3.172 0-3.172 5.789-.147 6.525 1.836 6.525 1.836 2.499-5.236-1.27-9.132-1.27-9.132Z" fill="#B64D50"/><path d="m303.464 322.217-14.676 8.694-6.54 5.602-150.869-3.201-4.174-3.56-18.515-3.615v77.179c-.021.768.375 1.546 1.195 1.984l2.97 1.593 90.554 48.561a4.68 4.68 0 0 0 4.387 0l87.67-46.923 11.389-6.091c1.47-.786 2.176-2.182 2.128-3.559l.005-.003v-77.175l-5.524.514Z" fill="url(#d)"/><path d="m306.861 318.411-.168-.091-90.557-48.56a4.685 4.685 0 0 0-4.387-.002l-83.24 44.555-18.622 9.956c-1.601.856-1.603 2.997-.003 3.854l2.97 1.593 90.554 48.56a4.684 4.684 0 0 0 4.388.003l87.669-46.927 11.389-6.087c2.848-1.522 2.852-5.331.007-6.854Z" fill="#ECF5FF"/><path d="m306.857 359.89-11.39 6.087-87.669 46.926a4.676 4.676 0 0 1-4.387-.002l-90.555-48.56-2.969-1.591c-.821-.443-1.216-1.219-1.195-1.988v6.229c-.021.769.374 1.547 1.195 1.987l2.969 1.593 90.555 48.561a4.68 4.68 0 0 0 4.387 0l87.669-46.924 11.39-6.09c1.469-.786 2.176-2.183 2.128-3.559l.005-.002v-6.23l-.005.003c.047 1.377-.659 2.775-2.128 3.56Z" fill="#ECF5FF"/><path d="M268.686 295.088c-2.001-2.638-4.13-.474-4.13-.474-2.827-.906-4.234 4.955-4.234 4.955l3.946 4.414c6.784-1.65 6.417-6.256 4.418-8.895ZM242.753 335.16c.282-2.847-2.498-2.516-2.498-2.516-1.351-2.12-5.929 1.096-5.929 1.096l-.066 5.082c5.609 2.496 8.212-.814 8.493-3.662Z" fill="#F7CA82"/><path d="M226.308 308.789s19.803 3.175 34.11-10.836l4.372 6.127s-12.908 16.588-38.828 14.667l.346-9.958Z" fill="#F45C5C"/><path d="M253.547 392.214s.185 4.369 2.611 5.039c2.427.669 6.254 1.832 5.261 5.634-.953 3.654-5.946 2.09-6.939 1.601-.993-.492-6.275-2.341-8.26-3.017-1.984-.675-1.853-4.169-1.125-7.298.73-3.129 8.452-1.959 8.452-1.959ZM238.803 397.931s.084 4.282 2.509 4.951c2.426.67 7.613 2.591 5.364 5.72-2.251 3.128-5.874 2.172-6.866 1.682-.993-.492-6.932-2.449-8.916-3.125-1.985-.675-1.75-3.833-1.021-6.959.725-3.129 8.93-2.269 8.93-2.269Z" fill="#C6704E"/><path d="M226.698 346.149s15.794 8.245 25.322 17.077c0 0 3.886 16.927 3.225 29.683 0 0-3.44 4.58-11.908 2.946l-3.147-28.342-25.565-12.612-2.237-7.975 14.31-.777Z" fill="#2367E9"/><path d="M212.388 349.829s23.106 15.114 25.576 18.631c0 0 3.52 21.425 2.903 30.993 0 0-6.793 4.66-12.703 1.715 0 0-3.519-24.939-3.784-27.476 0 0-17.69-6.935-20.512-9.798-2.823-2.862-2.314-10.355-.982-12.784l9.502-1.281Z" fill="#2367E9"/><path d="m207.219 306.268-.396 4.948s.969 3.394 5.733 3.885c4.764.492 6.572-2.821 6.572-2.821v-4.131l-11.909-1.881Z" fill="#F7B378"/><path d="M206.823 311.216s-6.307 3.313-9.882 6.87c0 0 4.887 11.069 5.944 33.024 0 0 12.819 2.606 24.299-4.96 0 0 .815-25.089-.878-37.361 0 0-4.378.772-7.179 1.14l-12.304 1.287Z" fill="#506BD6"/><path d="M206.032 304.417s1.842 7.588 9.426 7.469c8.749-.137 9.092-10.735 7.895-15.689-1.122-4.631-7.228-10.062-13.223-6.447-4.5 2.715-5.96 7.709-4.098 14.667Z" fill="#F7CA82"/><path d="M212.8 287.442s-7.664.419-9.223 9.247c0 0-1.152 7.335 4.805 12.1 0 0-.21-3.035.224-3.629.434-.595-1.3-2.302-1.141-3.465.158-1.158.308-3.28 1.751-2.254l.522.48c.463.429 1.243.076 1.176-.529-.099-.886-.07-1.863.37-2.488.968-1.377 6.488 1.086 12.379-.002 0 0 1.088-1.035.881-3.171 0 0-1.688-8.333-11.744-6.289Z" fill="#C6704E"/><path d="m208.897 310.047 4.943 1.09 5.288 1.537-.45 2.211-2.373.972-5.023-2.123-2.904-2.597.519-1.09Z" fill="#F7B378"/><path d="m206.946 309.662-1.281 1.817 8.161 7.267 2.479-2.889-9.359-6.195ZM216.305 315.857l2.952 2.422 1.391-8.232-4.343 5.81Z" fill="#F1F2F2"/><path d="M210.913 299.538s-.974 7.407 1.539 9.165c0 0 4.069 2.268 8.993.432 0 0 2.084 2.243.333 3.682-1.752 1.438-9.113 1.138-10.826-.56-1.714-1.7-2.124-9.166-1.213-12.334l.762-.747.412.362Z" fill="#C6704E"/><path d="M196.943 318.086s4.377.253 7.281 6.018c2.903 5.765 17.73 10.669 31.105 8.554 0 0 .62 3.749-.52 6.92 0 0-21.565 3.268-32.038-4.038 0 .001-15.708-10.586-5.828-17.454Z" fill="#F45C5C"/><path d="M297.945 87.298s2.053-1.719 2.982-2.297c1.81-1.125 2.754-3.091 2.631-4.068-.122-.977-1.001-2.586-1.753-2.9-.75-.313-1.383 1.9-1.956 2.68-1.248 1.697-2.169 1.67-2.171 1.67.053.003.295-.765.319-.819.235-.556.51-1.094.77-1.637.022-.044.043-.09.028-.141-.016-.064-.084-.11-.149-.126-.854-.191-1.791.71-2.011 1.35-.225.654-2.953 4.05-2.953 4.05l4.263 2.238Z" fill="#F7CA82"/><path d="M266.009 92.966s16.385 2.766 28.086-9.327c0 0 3.643-.06 4.531 3.784 0 0-13.488 17.023-32.988 13.378.002 0-5.847-5.532.371-7.835Z" fill="#18BC6C"/><path d="M321.434 91.638s2.262-1.894 3.287-2.531c1.989-1.24 3.031-3.404 2.896-4.48-.135-1.075-1.103-2.848-1.931-3.194-.827-.346-1.524 2.092-2.155 2.95-1.373 1.869-2.388 1.842-2.39 1.842.057.003.326-.842.35-.904.258-.612.562-1.203.849-1.801.023-.049.046-.1.031-.157-.017-.07-.091-.121-.166-.139-.94-.211-1.973.784-2.213 1.487-.248.72-3.251 4.459-3.251 4.459l4.693 2.468Z" fill="#F7CA82"/><path d="M269.169 188.596s1.185 1.083 3.079 0a10.863 10.863 0 0 1 3.902-1.348c.775-.103 1.575-.107 2.34.065.557.125 1.694.458 1.933 1 .641 1.459-.152 2.746-1.324 3.684-3.188 2.547-7.039 4.459-11.282 4.809-1.821.149-4.061.182-5.753-.558 0 0-.284-6.446.497-7.29l6.608-.362Z" fill="#B64D50"/><path d="M265.399 128.364s-2.34 8.193-2.08 14.579l-2.015 45.363s3.927 3.233 11.464 2.029l2.129-61.532-9.498-.439Z" fill="#2367E9"/><path d="M284.706 192.525s1.184 1.085 3.078 0c1.179-.674 2.531-1.163 3.904-1.346.773-.104 1.575-.108 2.339.064.556.125 1.694.457 1.933 1 .642 1.46-.152 2.745-1.324 3.682-3.188 2.548-7.038 4.46-11.281 4.81-1.82.15-4.062.181-5.752-.558 0 0-.285-6.447.497-7.29l6.606-.362Z" fill="#B64D50"/><path d="M273.341 127.699s-1.528 6.12.37 13.671l3.257 52.132s5.198 2.122 11.568 0l-2.794-61.402-12.401-4.401Z" fill="#2367E9"/><path d="M287.029 129.305c-.043-5.182.304-10.233.341-15.42.035-4.4.638-8.592.527-12.991-.024-.905-.046-1.809-.082-2.712l-8.15-4.298-9.797-2.11-3.602.84c-1.558.094-2.843 1.152-3.127 2.574-.515 2.556-1.081 6.674-.339 10.042.491 2.223 1.027 6.311 1.484 10.308.046.416.683 8.301.347 11.518 0 0-.081.652.768 1.307 6.498 5.543 20.341 3.735 20.341 3.735 1.562-.147 1.301-1.533 1.289-2.793Z" fill="#1CD87D"/><path d="M271.247 72.3c2.342-.356 5.537-.422 7.8.197 3.806 1.042 5.886 3.297 6.803 6.646.928 3.376 1.203 9.002-.882 12.136-1.302 1.962-4.205 1.594-6.278 1.084-2.508-.617-5.784-1.619-7.839-3.059-2.863-2.005-4.378-6.396-4.552-9.567-.15-2.734 1.373-6.893 4.948-7.437Z" fill="#F7CA82"/><path d="M269.876 88.477c.306.306.629.585.975.828 2.055 1.44 5.333 2.441 7.839 3.058.398.098.833.185 1.275.256l-.298 1.266a14.3 14.3 0 0 1-6.993.013c-1.372-.353-2.806-.89-2.806-2.227v-3.194h.008Z" fill="#F7B378"/><path d="M280.728 84.518s.916 4.28 2.527 5.04c1.612.757 2.489.18 2.489.18s.324 1.245 0 2.038c-.325.793-1.564 2.495-2.303 2.55-.739.054-3.517-.992-3.476-2.416.042-1.423-.372-6.595-.372-6.595l.372-.61.763-.187Z" fill="#B64D50"/><path d="M287.632 72.261s-3.011 1.273-7.578-.489c-2.321-.895-8.793-.656-10.616 1.19h.001c-2.281 1.404-3.26 4.558-3.139 6.775.107 1.94.717 4.33 1.826 6.357 2.326 5.45 6.499 5.057 6.499 5.057.586-.26 3.693-2.5 3.693-2.5-1.2-.647-2.127-4.339-.849-4.984 1.274-.646 2.127 1.65 2.127 1.65.735-.25 1.856-1.04 1.237-2.402-.619-1.364 0-2.797 0-2.797 2.261.041 4.129-1.14 4.845-1.515-.001-.002 3.011-1.934 1.954-6.342Z" fill="#B64D50"/><path d="m269.869 90.022-.896 1.956s4.208 5.269 11.744 2.543l-.901-1.271s-6.915.94-9.947-3.228Z" fill="#ECF5FF"/><path d="M286.263 97.88s18.046 3.046 30.933-10.271c0 0 4.013-.067 4.989 4.166 0 0-14.853 18.748-36.33 14.732 0 0-6.438-6.091.408-8.627Z" fill="#1CD87D"/><path d="m379.691 198.144-68.267-36.616a1.47 1.47 0 0 0-1.373-.008v-.001l-.015.008a.008.008 0 0 1-.005.002l-2.614 1.408 1.921 6.372v41.902c0 1.527.878 2.936 2.305 3.7l65.773 35.283.765 1.917 2.631-1.417v-.002c.743-.388 1.276-1.12 1.276-2.024v-46.676c0-1.587-.914-3.054-2.397-3.848Z" fill="#8CE2FF"/><path d="M379.453 203.411v46.677c0 1.788-2.09 2.905-3.762 2.012l-66.684-35.77c-1.426-.763-2.305-2.174-2.305-3.699v-48.567c0-.994 1.159-1.614 2.088-1.117l68.268 36.615c1.482.794 2.395 2.261 2.395 3.849Z" fill="#2367E9"/><path d="M377.604 205.275v41.535l-69.269-37.152v-41.534l69.269 37.151Z" fill="#FF6A6A"/><path d="m262.155 237.388 40.774-21.969c.881-.472 2.32-.472 3.205 0l71.434 38.234c.884.473.889 1.249.011 1.72l-40.776 21.969c-.882.474-2.319.474-3.205 0l-71.433-38.233c-.885-.475-.889-1.248-.01-1.721Z" fill="#ECF5FF"/><path d="m336.803 277.342 40.775-21.968c.436-.235.655-.544.656-.853l-.004 3.037c-.001.31-.22.618-.655.855l-40.776 21.966.004-3.037Z" fill="#D8D2D6"/><path d="M261.498 238.242c0 .314.225.629.668.866l71.433 38.233c.886.473 2.324.473 3.205 0l-.004 3.037c-.879.473-2.318.473-3.203 0l-71.435-38.232c-.444-.239-.667-.552-.667-.867l.003-3.037Z" fill="#C9C4CC"/><path d="M314.579 228.118c.295.159.296.416.005.573l-3.071 1.657c-.292.157-.772.157-1.066-.005l-11.724-6.297c-.297-.159-.297-.413-.004-.572l3.068-1.652c.295-.16.772-.16 1.066-.002l11.726 6.298ZM307.052 229.914c.295.157.298.414.004.573l-3.07 1.65c-.291.158-.773.158-1.065 0l-9.402-5.026c-.292-.159-.292-.417-.002-.574l3.069-1.652c.293-.156.769-.156 1.065 0l9.401 5.029ZM306.79 235.146c.295.157.296.414.006.573l-3.072 1.65c-.294.16-.772.16-1.066 0l-13.866-7.424c-.295-.16-.299-.414-.004-.573l3.068-1.653c.294-.158.769-.158 1.064 0l13.87 7.427ZM329.461 252.894c.294.158.294.412.002.569l-3.069 1.654c-.294.159-.771.159-1.069 0l-27.752-14.83c-.296-.157-.296-.414-.001-.574l3.07-1.65c.291-.157.768-.157 1.065 0l27.754 14.831ZM371.441 252.55c.294.157.295.413 0 .573l-3.067 1.652c-.297.157-.771.157-1.065 0l-8.478-4.543c-.295-.157-.295-.41-.004-.567l3.071-1.654c.291-.157.77-.157 1.065 0l8.478 4.539ZM365.953 255.505c.295.157.296.412.001.572l-3.067 1.652c-.296.157-.771.157-1.066 0l-2.989-1.598c-.295-.158-.295-.413-.004-.568l3.071-1.655c.292-.155.77-.155 1.065 0l2.989 1.597ZM361.344 253.03c.294.157.295.412.001.572l-3.067 1.653c-.296.158-.771.158-1.067 0l-2.988-1.6c-.295-.157-.296-.41-.004-.568l3.07-1.653c.29-.157.77-.157 1.066 0l2.989 1.596ZM356.735 250.558c.294.156.296.411 0 .57l-3.067 1.654c-.297.157-.771.157-1.066 0l-2.989-1.599c-.293-.157-.294-.412-.004-.569l3.071-1.654c.291-.157.771-.157 1.066 0l2.989 1.598ZM352.126 248.085c.293.155.295.412.001.572l-3.067 1.652c-.296.158-.772.158-1.066 0l-2.99-1.598c-.295-.157-.295-.412-.003-.567l3.07-1.656c.291-.157.77-.157 1.066 0l2.989 1.597ZM347.518 245.61c.294.158.295.413 0 .573l-3.067 1.653c-.295.157-.771.155-1.066 0l-2.988-1.601c-.295-.155-.295-.41-.004-.567l3.07-1.653c.291-.158.77-.158 1.066 0l2.989 1.595ZM342.908 243.137c.294.157.296.412.001.572l-3.067 1.653c-.296.157-.771.157-1.065 0l-2.99-1.598c-.295-.157-.295-.413-.004-.57l3.071-1.653c.29-.158.77-.158 1.065 0l2.989 1.596ZM338.3 240.663c.291.16.294.412 0 .574l-3.069 1.653c-.295.157-.771.157-1.064 0l-2.99-1.599c-.295-.157-.296-.412-.002-.567l3.07-1.656c.291-.155.769-.155 1.064 0l2.991 1.595ZM333.69 238.191c.293.157.295.412 0 .572l-3.066 1.652c-.298.157-.772.157-1.067 0l-2.99-1.598c-.293-.158-.293-.413-.002-.568l3.071-1.655c.289-.155.77-.155 1.064 0l2.99 1.597ZM329.083 235.717c.293.157.295.412 0 .572l-3.067 1.652c-.296.16-.772.16-1.067 0l-2.99-1.598c-.295-.155-.295-.41-.002-.568l3.07-1.653c.291-.157.769-.157 1.066 0l2.99 1.595ZM324.473 233.246c.293.155.295.41 0 .569l-3.068 1.654c-.295.157-.771.157-1.064 0l-2.99-1.598c-.296-.158-.296-.413-.005-.57l3.072-1.654c.291-.157.769-.157 1.065 0l2.99 1.599ZM319.862 230.771c.294.155.297.412.003.572l-3.069 1.652c-.296.158-.771.158-1.066 0l-2.989-1.598c-.294-.157-.295-.412-.004-.567l3.07-1.656c.29-.157.771-.157 1.066 0l2.989 1.597ZM316.184 223.174c.294.158.295.414 0 .573l-3.066 1.653c-.296.158-.772.157-1.067 0l-2.988-1.599c-.294-.157-.295-.413-.003-.569l3.07-1.655c.29-.156.768-.156 1.065 0l2.989 1.597ZM310.837 220.396c.294.157.294.414.002.574l-3.068 1.653c-.297.157-.772.156-1.067 0l-2.989-1.598c-.295-.158-.296-.414-.002-.57l3.069-1.655c.292-.156.771-.156 1.066 0l2.989 1.596ZM349.171 252.471c.293.157.295.412.002.572l-3.068 1.653c-.296.157-.773.157-1.067 0l-2.989-1.6c-.295-.158-.295-.411-.003-.568l3.07-1.653c.291-.158.77-.158 1.066 0l2.989 1.596ZM344.561 249.999c.294.155.295.411.001.571l-3.067 1.652c-.296.158-.772.158-1.066 0l-2.989-1.598c-.295-.157-.295-.412-.003-.567l3.071-1.656c.29-.157.769-.157 1.065 0l2.988 1.598ZM339.953 247.524c.293.155.295.413 0 .573l-3.067 1.652c-.296.157-.771.157-1.067 0l-2.989-1.598c-.294-.158-.294-.413-.003-.568l3.07-1.656c.291-.155.771-.155 1.067 0l2.989 1.597ZM335.343 245.051c.293.157.295.412.001.572l-3.069 1.652c-.295.16-.771.157-1.064 0l-2.99-1.598c-.294-.155-.294-.413-.004-.568l3.071-1.653c.291-.157.769-.157 1.067 0l2.988 1.595ZM330.734 242.577c.295.157.296.413.002.572l-3.068 1.654c-.297.157-.771.157-1.066 0l-2.988-1.599c-.295-.157-.296-.412-.004-.57l3.07-1.653c.29-.157.771-.157 1.066 0l2.988 1.596ZM326.125 240.105c.295.157.296.41.001.572l-3.067 1.652c-.297.158-.771.158-1.066 0l-2.99-1.598c-.293-.157-.295-.412-.003-.568l3.071-1.655c.291-.158.769-.158 1.064 0l2.99 1.597ZM321.517 237.631c.291.157.294.412 0 .572l-3.067 1.652c-.297.16-.772.158-1.066 0l-2.991-1.598c-.293-.157-.295-.41-.001-.568l3.07-1.655c.291-.155.769-.155 1.066 0l2.989 1.597ZM316.907 235.158c.293.157.296.412 0 .572l-3.067 1.653c-.297.157-.772.157-1.067 0l-2.989-1.6c-.294-.156-.294-.411-.002-.568l3.071-1.653c.29-.158.769-.158 1.064 0l2.99 1.596ZM344.248 255.148c.295.157.296.412.001.571l-3.068 1.654c-.296.157-.77.157-1.065 0l-2.99-1.598c-.293-.158-.293-.414-.002-.571l3.071-1.654c.29-.157.77-.157 1.065 0l2.988 1.598ZM339.638 252.675c.295.155.298.413.003.573l-3.069 1.652c-.295.158-.769.158-1.066 0l-2.989-1.598c-.295-.157-.295-.414-.004-.569l3.07-1.655c.292-.158.771-.158 1.067 0l2.988 1.597ZM338.871 258.18c.293.158.295.414.001.574l-3.067 1.653c-.296.157-.772.157-1.066 0l-2.989-1.598c-.296-.158-.296-.414-.005-.569l3.071-1.656c.291-.157.77-.157 1.066 0l2.989 1.596ZM343.967 261.006c.293.155.295.413.002.573l-3.068 1.652c-.297.16-.773.157-1.068 0l-2.989-1.598c-.294-.158-.294-.414-.003-.569l3.071-1.655c.29-.156.771-.156 1.066 0l2.989 1.597ZM349.171 263.871c.293.159.295.414.002.573l-3.068 1.653c-.296.157-.773.157-1.067 0l-2.989-1.599c-.295-.157-.295-.413-.003-.568l3.07-1.656c.291-.155.77-.155 1.066 0l2.989 1.597ZM334.154 255.621c.294.155.297.41 0 .572l-3.066 1.652c-.296.157-.772.157-1.067 0l-2.989-1.598c-.294-.158-.294-.413-.002-.57l3.071-1.653c.29-.158.769-.158 1.064 0l2.989 1.597ZM335.032 250.201c.292.158.293.414 0 .574l-3.069 1.653c-.295.157-.771.155-1.063 0l-2.989-1.601c-.295-.157-.297-.413-.005-.568l3.071-1.656c.291-.155.769-.155 1.064 0l2.991 1.598ZM330.421 247.727c.294.157.295.413.002.573l-3.068 1.653c-.297.158-.771.158-1.066 0l-2.99-1.598c-.294-.157-.295-.414-.003-.571l3.07-1.653c.29-.158.771-.158 1.065 0l2.99 1.596ZM325.812 245.255c.294.155.297.412 0 .574l-3.066 1.652c-.296.157-.772.157-1.067 0l-2.989-1.598c-.294-.158-.295-.414-.003-.569l3.072-1.656c.29-.155.768-.155 1.064 0l2.989 1.597ZM321.202 242.782c.294.157.296.413.001.573l-3.067 1.652c-.295.158-.771.158-1.066 0l-2.989-1.598c-.295-.157-.295-.414-.003-.569l3.07-1.655c.29-.155.769-.155 1.066 0l2.988 1.597ZM316.595 240.307c.294.157.297.413 0 .573l-3.067 1.652c-.296.16-.771.158-1.066 0l-2.989-1.598c-.294-.155-.294-.413-.004-.569l3.069-1.653c.291-.157.771-.157 1.066 0l2.991 1.595ZM311.985 237.836c.295.155.295.411.003.571l-3.069 1.653c-.296.157-.771.157-1.065 0l-2.99-1.598c-.295-.158-.296-.414-.004-.571l3.071-1.655c.29-.157.77-.157 1.066 0l2.988 1.6ZM299.76 236.975c.293.157.295.412 0 .572l-3.067 1.653c-.296.158-.772.158-1.067 0l-2.989-1.6c-.294-.158-.295-.41-.003-.569l3.071-1.653c.29-.158.769-.158 1.065 0l2.99 1.597ZM295.15 234.503c.292.155.295.41 0 .57l-3.067 1.653c-.295.157-.771.157-1.065 0l-2.989-1.598c-.296-.158-.296-.413-.004-.569l3.07-1.654c.291-.158.77-.158 1.067 0l2.988 1.598ZM290.541 232.029c.294.155.296.413 0 .572l-3.068 1.652c-.296.158-.77.158-1.065 0l-2.99-1.598c-.293-.157-.293-.412-.003-.569l3.071-1.655c.29-.156.769-.156 1.064 0l2.991 1.598ZM312.182 232.623c.294.157.296.413.001.573l-3.067 1.653c-.296.158-.771.158-1.066 0l-2.989-1.598c-.295-.158-.296-.413-.004-.571l3.071-1.653c.29-.157.77-.157 1.065 0l2.989 1.596ZM360.664 246.778c.294.157.295.413.001.573l-3.067 1.652c-.298.157-.772.157-1.066 0l-8.477-4.543c-.296-.157-.296-.41-.005-.567l3.072-1.656c.29-.155.769-.155 1.065 0l8.477 4.541ZM349.888 241.008c.292.155.293.411 0 .571l-3.068 1.652c-.296.157-.77.157-1.065 0l-8.479-4.543c-.293-.155-.295-.41-.003-.568l3.069-1.653c.292-.157.773-.157 1.067 0l8.479 4.541ZM339.109 235.234c.294.156.296.413.001.571l-3.067 1.653c-.295.157-.772.157-1.067 0l-8.477-4.543c-.295-.155-.295-.41-.002-.568l3.069-1.653c.292-.157.771-.157 1.067 0l8.476 4.54ZM328.332 229.462c.294.156.295.412 0 .571l-3.067 1.653c-.297.158-.771.158-1.066 0l-8.477-4.542c-.295-.157-.295-.414-.004-.57l3.07-1.654c.29-.157.768-.157 1.064 0l8.48 4.542ZM360.197 258.449c.294.158.294.412.003.571l-3.068 1.652c-.295.158-.774.16-1.067.003l-8.479-4.54c-.293-.159-.296-.414-.002-.574l3.071-1.65c.292-.162.769-.162 1.063 0l8.479 4.538ZM355.024 261.126c.292.16.296.415.005.572l-3.031 1.771c-.292.159-.809.038-1.104-.12l-8.481-4.538c-.291-.16-.293-.416-.001-.576l3.07-1.652c.292-.157.768-.157 1.065 0l8.477 4.543ZM320.379 255.173c.307.164.309.431.005.595l-10.386 5.596c-.303.164-.801.164-1.109 0l-21.347-11.446c-.305-.165-.308-.434-.003-.598l10.385-5.593c.303-.164.803-.164 1.11 0l21.345 11.446Z" fill="#8CBEF1"/><path d="M333.227 189.071v-2.024l-19.596-10.511v2.025l19.596 10.51ZM333.227 192.957v-2.025l-19.596-10.51v2.023l19.596 10.512ZM333.227 196.842v-2.025l-19.596-10.511v2.024l19.596 10.512ZM370.916 208.554v-2.024l-19.599-10.51v2.024l19.599 10.51ZM370.916 212.439v-2.024l-19.599-10.511v2.024l19.599 10.511ZM370.916 216.324V214.3l-19.599-10.51v2.022l19.599 10.512ZM370.916 225.12v-2.023l-19.599-10.511v2.024l19.599 10.51ZM370.916 229.005v-2.022l-19.599-10.512v2.025l19.599 10.509ZM370.916 232.89v-2.023l-19.599-10.511v2.024l19.599 10.51ZM321.405 203.888V195.4c-.155-.093-.311-.19-.469-.275-4.341-2.322-7.87-.458-7.884 4.164-.013 4.624 3.494 10.254 7.834 12.578 4.339 2.323 7.869.458 7.883-4.165 0-.068-.008-.139-.011-.208l-7.353-3.606Z" fill="#ECF5FF"/><defs><linearGradient id="a" x1="469.517" y1="143.179" x2="326.398" y2="185.403" gradientUnits="userSpaceOnUse"><stop stop-color="#8CE2FF"/><stop offset=".308" stop-color="#86D9FD"/><stop offset=".816" stop-color="#77C0F6"/><stop offset="1" stop-color="#71B5F3"/></linearGradient><linearGradient id="b" x1="543.95" y1="316.591" x2="116.564" y2="198.624" gradientUnits="userSpaceOnUse"><stop stop-color="#1FDE82"/><stop offset="1" stop-color="#13C971"/></linearGradient><linearGradient id="c" x1="188.85" y1="243.565" x2="-34.658" y2="309.506" gradientUnits="userSpaceOnUse"><stop stop-color="#8CE2FF"/><stop offset=".308" stop-color="#86D9FD"/><stop offset=".816" stop-color="#77C0F6"/><stop offset="1" stop-color="#71B5F3"/></linearGradient><linearGradient id="d" x1="364.844" y1="338.482" x2="82.235" y2="421.86" gradientUnits="userSpaceOnUse"><stop stop-color="#8CE2FF"/><stop offset=".308" stop-color="#86D9FD"/><stop offset=".816" stop-color="#77C0F6"/><stop offset="1" stop-color="#71B5F3"/></linearGradient></defs></svg>